<svg xmlns="http://www.w3.org/2000/svg" viewBox="0 0 24 24"><path d="M12 3C17.3917 3 21.8776 6.87976 22.8189 12C21.8776 17.1202 17.3917 21 12 21C6.60833 21 2.12243 17.1202 1.18115 12C2.12243 6.87976 6.60833 3 12 3ZM12 19C16.2549 19 19.9461 16.0779 20.7998 12C19.9461 7.92215 16.2549 5 12 5C7.74512 5 4.05393 7.92215 3.20016 12C4.05393 16.0779 7.74512 19 12 19ZM12 16.5C9.51472 16.5 7.5 14.4853 7.5 12C7.5 9.51472 9.51472 7.5 12 7.5C14.4853 7.5 16.5 9.51472 16.5 12C16.5 14.4853 14.4853 16.5 12 16.5ZM12 14.5C13.3807 14.5 14.5 13.3807 14.5 12C14.5 10.6193 13.3807 9.5 12 9.5C10.6193 9.5 9.5 10.6193 9.5 12C9.5 13.3807 10.6193 14.5 12 14.5Z"></path></svg>
