<svg xmlns="http://www.w3.org/2000/svg" viewBox="0 0 24 24"><path d="M15.224 15.508L13.0111 20.0454C12.9573 20.1558 12.888 20.258 12.8053 20.349L12.7071 20.4472C12.3166 20.8377 11.6834 20.8377 11.2929 20.4472L3.55279 12.7071C3.16226 12.3166 3.16226 11.6834 3.55279 11.2929L3.651 11.1947C3.74202 11.112 3.84418 11.0427 3.95462 10.9889L8.49207 8.77617L3.99998 4.28409L4.28409 3.99998L8.77617 8.49207L10.9889 3.95462C11.0427 3.84418 11.112 3.74202 11.1947 3.651L11.2929 3.55279C11.6834 3.16226 12.3166 3.16226 12.7071 3.55279L20.4472 11.2929C20.8377 11.6834 20.8377 12.3166 20.4472 12.7071L20.349 12.8053C20.258 12.888 20.1558 12.9573 20.0454 13.0111L15.224 15.508ZM13.3117 14.1475L17.5808 12.0664L11.9336 6.41915L9.85251 10.6883L5.58339 12.7694L11.2306 18.4166L13.3117 14.1475ZM15.6716 1.25736L17.0858 2.67157L15.6716 4.08579L14.2574 2.67157L15.6716 1.25736ZM20.5 4L22 5.5L20.5 7L19 5.5L20.5 4ZM5.5 1L7 2.5L5.5 4L4 2.5L5.5 1ZM2.5 17L4 18.5L2.5 20L1 18.5L2.5 17Z"></path></svg>
