<svg xmlns="http://www.w3.org/2000/svg" xmlns:xlink="http://www.w3.org/1999/xlink"><symbol id="ri-add-line" viewBox="0 0 24 24" fill="currentColor"><path d="M11 11V5h2v6h6v2h-6v6h-2v-6H5v-2z"/></symbol><symbol id="ri-alipay-line" viewBox="0 0 24 24" fill="currentColor"><path d="M18.408 16.79q-3.26-1.425-4.64-2.086c-1.4 1.696-2.872 2.72-5.08 2.72S5 16.064 5.176 14.392c.12-1.096.872-2.888 4.128-2.576 1.72.16 2.504.48 3.912.944.36-.664.664-1.4.888-2.176H7.88v-.616h3.072V8.864H7.2v-.68h3.752V6.592s.032-.248.312-.248H12.8v1.848h4v.68h-4v1.104h3.264a12.4 12.4 0 0 1-1.32 3.32q.765.273 4.76 1.483a8 8 0 1 0-1.096 2.012M12 22C6.477 22 2 17.523 2 12S6.477 2 12 2s10 4.477 10 10-4.477 10-10 10m-3.568-5.632c1.44 0 2.824-.872 3.96-2.352-1.608-.776-2.944-1.16-4.44-1.16-1.304 0-1.984.8-2.104 1.416s.248 2.096 2.584 2.096"/></symbol><symbol id="ri-arrow-left-s-line" viewBox="0 0 24 24"><path d="m10.828 12 4.95 4.95-1.414 1.415L8 12l6.364-6.364 1.414 1.414z"/></symbol><symbol id="ri-arrow-right-s-line" viewBox="0 0 24 24"><path d="m13.171 12-4.95-4.95 1.415-1.413L16 12l-6.364 6.364-1.414-1.415z"/></symbol><symbol id="ri-bank-card-line" viewBox="0 0 24 24" fill="currentColor"><path d="M3.005 3h18a1 1 0 0 1 1 1v16a1 1 0 0 1-1 1h-18a1 1 0 0 1-1-1V4a1 1 0 0 1 1-1m17 8h-16v8h16zm0-2V5h-16v4zm-6 6h4v2h-4z"/></symbol><symbol id="ri-barcode-fill" viewBox="0 0 24 24"><path d="M2 4h2v16H2zm4 0h2v16H6zm3 0h3v16H9zm4 0h2v16h-2zm3 0h2v16h-2zm3 0h3v16h-3z"/></symbol><symbol id="ri-checkbox-blank-circle-line" viewBox="0 0 24 24"><path d="M12 22C6.477 22 2 17.523 2 12S6.477 2 12 2s10 4.477 10 10-4.477 10-10 10m0-2a8 8 0 1 0 0-16 8 8 0 0 0 0 16"/></symbol><symbol id="ri-checkbox-circle-line" viewBox="0 0 24 24"><path d="M12 22C6.477 22 2 17.523 2 12S6.477 2 12 2s10 4.477 10 10-4.477 10-10 10m0-2a8 8 0 1 0 0-16 8 8 0 0 0 0 16m-.997-4L6.76 11.757l1.414-1.414 2.829 2.829 5.657-5.657 1.414 1.414z"/></symbol><symbol id="ri-close-circle-fill" viewBox="0 0 24 24"><path d="M12 22C6.477 22 2 17.523 2 12S6.477 2 12 2s10 4.477 10 10-4.477 10-10 10m0-11.414L9.172 7.757 7.757 9.172 10.586 12l-2.829 2.828 1.415 1.415L12 13.414l2.828 2.829 1.415-1.415L13.414 12l2.829-2.828-1.415-1.415z"/></symbol><symbol id="ri-close-circle-line" viewBox="0 0 24 24"><path d="M12 22C6.477 22 2 17.523 2 12S6.477 2 12 2s10 4.477 10 10-4.477 10-10 10m0-2a8 8 0 1 0 0-16 8 8 0 0 0 0 16m0-9.414 2.828-2.829 1.415 1.415L13.414 12l2.829 2.828-1.415 1.415L12 13.414l-2.828 2.829-1.415-1.415L10.586 12 7.757 9.172l1.415-1.415z"/></symbol><symbol id="ri-close-line" viewBox="0 0 24 24"><path d="m12 10.587 4.95-4.95 1.415 1.414-4.95 4.95 4.95 4.95-1.415 1.414-4.95-4.95-4.95 4.95-1.413-1.415 4.95-4.95-4.95-4.95L7.05 5.638z"/></symbol><symbol id="ri-code-box-fill" viewBox="0 0 24 24"><path d="M3 3h18a1 1 0 0 1 1 1v16a1 1 0 0 1-1 1H3a1 1 0 0 1-1-1V4a1 1 0 0 1 1-1m13.465 12.536L20 12l-3.535-3.536L15.05 9.88 17.172 12l-2.122 2.121zM6.828 12 8.95 9.879 7.536 8.464 4 12l3.536 3.536L8.95 14.12zm4.416 5 3.64-10h-2.128l-3.64 10z"/></symbol><symbol id="ri-coupon-3-line" viewBox="0 0 24 24" fill="currentColor"><path d="M2.005 4a1 1 0 0 1 1-1h18a1 1 0 0 1 1 1v5.5a2.5 2.5 0 0 0 0 5V20a1 1 0 0 1-1 1h-18a1 1 0 0 1-1-1zM8.09 19a1.5 1.5 0 0 1 2.83 0h9.085v-2.968a4.5 4.5 0 0 1 0-8.064V5H10.92a1.5 1.5 0 0 1-2.83 0H4.005v14zm1.415-8a1.5 1.5 0 1 1 0-3 1.5 1.5 0 0 1 0 3m0 5a1.5 1.5 0 1 1 0-3 1.5 1.5 0 0 1 0 3"/></symbol><symbol id="ri-customer-service-2-line" viewBox="0 0 24 24" fill="currentColor"><path d="M19.938 8H21a2 2 0 0 1 2 2v4a2 2 0 0 1-2 2h-1.062A8 8 0 0 1 12 23v-2a6 6 0 0 0 6-6V9A6 6 0 0 0 6 9v7H3a2 2 0 0 1-2-2v-4a2 2 0 0 1 2-2h1.062a8.001 8.001 0 0 1 15.876 0M3 10v4h1v-4zm17 0v4h1v-4zM7.76 15.785l1.06-1.696A5.97 5.97 0 0 0 12 15a5.97 5.97 0 0 0 3.18-.911l1.06 1.696A7.96 7.96 0 0 1 12 17a7.96 7.96 0 0 1-4.24-1.215"/></symbol><symbol id="ri-delete-bin-line" viewBox="0 0 24 24" fill="currentColor"><path d="M17 6h5v2h-2v13a1 1 0 0 1-1 1H5a1 1 0 0 1-1-1V8H2V6h5V3a1 1 0 0 1 1-1h8a1 1 0 0 1 1 1zm1 2H6v12h12zm-9 3h2v6H9zm4 0h2v6h-2zM9 4v2h6V4z"/></symbol><symbol id="ri-dice-line" viewBox="0 0 24 24"><path d="M10.998 1.58a2 2 0 0 1 2.004 0l7.5 4.342a2 2 0 0 1 .998 1.731v8.694a2 2 0 0 1-.998 1.73l-7.5 4.343a2 2 0 0 1-2.004 0l-7.5-4.342a2 2 0 0 1-.998-1.731V7.653a2 2 0 0 1 .998-1.73zM4.5 7.653v.005l6.502 3.764A2 2 0 0 1 12 13.153v7.536l7.5-4.342V7.653L12 3.311zM6.132 12.3c0-.552-.388-1.224-.866-1.5s-.866-.052-.866.5.388 1.224.866 1.5.866.052.866-.5m2.597 6.498c.478.276.866.053.866-.5 0-.552-.388-1.224-.866-1.5s-.866-.052-.866.5.388 1.224.866 1.5M5.266 16.8c.478.276.866.052.866-.5s-.388-1.224-.866-1.5-.866-.052-.866.5.388 1.224.866 1.5m3.463-2c.478.277.866.053.865-.5 0-.552-.387-1.223-.866-1.5-.478-.276-.866-.052-.866.5 0 .553.388 1.224.867 1.5M14.898 8c.478-.276.478-.724 0-1s-1.254-.276-1.732 0c-.479.276-.479.724 0 1 .478.276 1.254.276 1.732 0m-4.8-1c.478.276.478.724 0 1s-1.254.276-1.732 0-.478-.724 0-1 1.254-.276 1.732 0m5.897 8.35c.598-.346 1.083-1.185 1.083-1.875s-.485-.97-1.082-.625-1.083 1.184-1.083 1.875c0 .69.485.97 1.082.625"/></symbol><symbol id="ri-error-warning-line" viewBox="0 0 24 24"><path d="M12 22C6.477 22 2 17.523 2 12S6.477 2 12 2s10 4.477 10 10-4.477 10-10 10m0-2a8 8 0 1 0 0-16 8 8 0 0 0 0 16m-1-5h2v2h-2zm0-8h2v6h-2z"/></symbol><symbol id="ri-eye-line" viewBox="0 0 24 24"><path d="M12 3c5.392 0 9.878 3.88 10.819 9-.941 5.12-5.427 9-10.819 9s-9.878-3.88-10.819-9C2.122 6.88 6.608 3 12 3m0 16c4.255 0 7.946-2.922 8.8-7-.854-4.078-4.545-7-8.8-7s-7.946 2.922-8.8 7c.854 4.078 4.545 7 8.8 7m0-2.5a4.5 4.5 0 1 1 0-9 4.5 4.5 0 0 1 0 9m0-2a2.5 2.5 0 1 0 0-5 2.5 2.5 0 0 0 0 5"/></symbol><symbol id="ri-gift-line" viewBox="0 0 24 24" fill="currentColor"><path d="M15.005 2.003a4 4 0 0 1 3.464 6h4.536v2h-2v10a1 1 0 0 1-1 1h-16a1 1 0 0 1-1-1v-10h-2v-2H5.54a4 4 0 0 1 6.465-4.646 3.98 3.98 0 0 1 2.999-1.354m-4 8h-6v9h6zm8 0h-6v9h6zm-10-6a2 2 0 0 0-.15 3.994l.15.006h2v-2a2 2 0 0 0-1.697-1.977l-.154-.018zm6 0a2 2 0 0 0-1.995 1.85l-.005.15v2h2a2 2 0 0 0 1.994-1.85l.006-.15a2 2 0 0 0-2-2"/></symbol><symbol id="ri-heart-3-fill" viewBox="0 0 24 24"><path d="M16.5 3C19.538 3 22 5.5 22 9c0 7-7.5 11-10 12.5C9.5 20 2 16 2 9c0-3.5 2.5-6 5.5-6C9.36 3 11 4 12 5c1-1 2.64-2 4.5-2"/></symbol><symbol id="ri-heart-line" viewBox="0 0 24 24" fill="currentColor"><path d="M12.001 4.529a6 6 0 0 1 8.242.228 6 6 0 0 1 .236 8.236l-8.48 8.492-8.478-8.492a6 6 0 0 1 8.48-8.464m6.826 1.641a4 4 0 0 0-5.49-.153l-1.335 1.198-1.336-1.197a4 4 0 0 0-5.686 5.605L12 18.654l7.02-7.03a4 4 0 0 0-.193-5.454"/></symbol><symbol id="ri-home-4-line" viewBox="0 0 24 24" fill="currentColor"><path d="M19 21H5a1 1 0 0 1-1-1v-9H1l10.327-9.388a1 1 0 0 1 1.346 0L23 11h-3v9a1 1 0 0 1-1 1m-6-2h5V9.157l-6-5.454-6 5.454V19h5v-6h2z"/></symbol><symbol id="ri-image-2-fill" viewBox="0 0 24 24"><path d="m5 11.1 2-2 5.5 5.5 3.5-3.5 3 3V5H5zM4 3h16a1 1 0 0 1 1 1v16a1 1 0 0 1-1 1H4a1 1 0 0 1-1-1V4a1 1 0 0 1 1-1m11.5 7a1.5 1.5 0 1 1 0-3 1.5 1.5 0 0 1 0 3"/></symbol><symbol id="ri-information-line" viewBox="0 0 24 24"><path d="M12 22C6.477 22 2 17.523 2 12S6.477 2 12 2s10 4.477 10 10-4.477 10-10 10m0-2a8 8 0 1 0 0-16 8 8 0 0 0 0 16M11 7h2v2h-2zm0 4h2v6h-2z"/></symbol><symbol id="ri-lock-line" viewBox="0 0 24 24"><path d="M19 10h1a1 1 0 0 1 1 1v10a1 1 0 0 1-1 1H4a1 1 0 0 1-1-1V11a1 1 0 0 1 1-1h1V9a7 7 0 0 1 14 0zM5 12v8h14v-8zm6 2h2v4h-2zm6-4V9A5 5 0 0 0 7 9v1z"/></symbol><symbol id="ri-magic-line" viewBox="0 0 24 24"><path d="m15.224 15.508-2.213 4.537q-.081.166-.206.304l-.098.098a1 1 0 0 1-1.414 0l-7.74-7.74a1 1 0 0 1 0-1.414l.098-.098q.137-.125.304-.206l4.537-2.213L4 4.284 4.284 4l4.492 4.492 2.213-4.537q.081-.166.206-.304l.098-.098a1 1 0 0 1 1.414 0l7.74 7.74a1 1 0 0 1 0 1.414l-.098.098a1.3 1.3 0 0 1-.304.206zm-1.912-1.36 4.269-2.082-5.647-5.647-2.081 4.27-4.27 2.08 5.648 5.648zm2.36-12.89 1.414 1.414-1.414 1.414-1.415-1.414zM20.5 4 22 5.5 20.5 7 19 5.5zm-15-3L7 2.5 5.5 4 4 2.5zm-3 16L4 18.5 2.5 20 1 18.5z"/></symbol><symbol id="ri-message-3-line" viewBox="0 0 24 24" fill="currentColor"><path d="M2 8.994A5.99 5.99 0 0 1 8 3h8c3.313 0 6 2.695 6 5.994V21H8c-3.313 0-6-2.695-6-5.994zM20 19V8.994A4.004 4.004 0 0 0 16 5H8a3.99 3.99 0 0 0-4 3.994v6.012A4.004 4.004 0 0 0 8 19zm-6-8h2v2h-2zm-6 0h2v2H8z"/></symbol><symbol id="ri-moon-line" viewBox="0 0 24 24"><path d="M10 7a7 7 0 0 0 12 4.9v.1c0 5.523-4.477 10-10 10S2 17.523 2 12 6.477 2 12 2h.1A6.98 6.98 0 0 0 10 7"/></symbol><symbol id="ri-more-2-line" viewBox="0 0 24 24" fill="currentColor"><path d="M12 3c-.825 0-1.5.675-1.5 1.5S11.175 6 12 6s1.5-.675 1.5-1.5S12.825 3 12 3m0 15c-.825 0-1.5.675-1.5 1.5S11.175 21 12 21s1.5-.675 1.5-1.5S12.825 18 12 18m0-7.5c-.825 0-1.5.675-1.5 1.5s.675 1.5 1.5 1.5 1.5-.675 1.5-1.5-.675-1.5-1.5-1.5"/></symbol><symbol id="ri-more-fill" viewBox="0 0 24 24"><path d="M5 10c-1.1 0-2 .9-2 2s.9 2 2 2 2-.9 2-2-.9-2-2-2m14 0c-1.1 0-2 .9-2 2s.9 2 2 2 2-.9 2-2-.9-2-2-2m-7 0c-1.1 0-2 .9-2 2s.9 2 2 2 2-.9 2-2-.9-2-2-2"/></symbol><symbol id="ri-more-line" viewBox="0 0 24 24"><path d="M4.5 10.5c-.825 0-1.5.675-1.5 1.5s.675 1.5 1.5 1.5S6 12.825 6 12s-.675-1.5-1.5-1.5m15 0c-.825 0-1.5.675-1.5 1.5s.675 1.5 1.5 1.5S21 12.825 21 12s-.675-1.5-1.5-1.5m-7.5 0c-.825 0-1.5.675-1.5 1.5s.675 1.5 1.5 1.5 1.5-.675 1.5-1.5-.675-1.5-1.5-1.5"/></symbol><symbol id="ri-movie-2-fill" viewBox="0 0 24 24"><path d="M18.001 20H20v2h-8C6.477 22 2 17.523 2 12S6.477 2 12 2s10 4.477 10 10a9.99 9.99 0 0 1-3.999 8M12 10a2 2 0 1 0 0-4 2 2 0 0 0 0 4m-4 4a2 2 0 1 0 0-4 2 2 0 0 0 0 4m8 0a2 2 0 1 0 0-4 2 2 0 0 0 0 4m-4 4a2 2 0 1 0 0-4 2 2 0 0 0 0 4"/></symbol><symbol id="ri-palette-line" viewBox="0 0 24 24"><path d="m5.765 8-.296-.73a1 1 0 0 1 .553-1.302l9.272-3.746a1 1 0 0 1 1.302.552l5.619 13.908a1 1 0 0 1-.553 1.302L12.39 21.73a1 1 0 0 1-1.302-.553L11 20.96V21H7a1 1 0 0 1-1-1v-.27l-3.35-1.353a1 1 0 0 1-.552-1.302zM8 19h2.209L8 13.533zm-2-6.244-1.673 4.141L6 17.608zm1.698-5.309 4.87 12.054 7.418-2.997-4.87-12.053zm2.979 2.033a1 1 0 1 1-.75-1.855 1 1 0 0 1 .75 1.855"/></symbol><symbol id="ri-qr-code-fill" viewBox="0 0 24 24"><path d="M16 17v-1h-3v-3h3v2h2v2h-1v2h-2v2h-2v-3h2v-1zm5 4h-4v-2h2v-2h2zM3 3h8v8H3zm10 0h8v8h-8zM3 13h8v8H3zm15 0h3v2h-3zM6 6v2h2V6zm0 10v2h2v-2zM16 6v2h2V6z"/></symbol><symbol id="ri-radio-button-line" viewBox="0 0 24 24"><path d="M12 22C6.477 22 2 17.523 2 12S6.477 2 12 2s10 4.477 10 10-4.477 10-10 10m0-2a8 8 0 1 0 0-16 8 8 0 0 0 0 16m0-3a5 5 0 1 1 0-10 5 5 0 0 1 0 10"/></symbol><symbol id="ri-refresh-line" viewBox="0 0 24 24"><path d="M2 12c0 5.523 4.477 10 10 10s10-4.477 10-10S17.523 2 12 2v2a8 8 0 1 1-4.5 1.385V8h2V2h-6v2H6a9.99 9.99 0 0 0-4 8"/></symbol><symbol id="ri-save-line" viewBox="0 0 24 24"><path d="M7 19v-6h10v6h2V7.828L16.172 5H5v14zM4 3h13l4 4v13a1 1 0 0 1-1 1H4a1 1 0 0 1-1-1V4a1 1 0 0 1 1-1m5 12v4h6v-4z"/></symbol><symbol id="ri-scan-2-line" viewBox="0 0 24 24" fill="currentColor"><path d="M5.671 4.257 13.414 12 12 13.414 8.554 9.968a4 4 0 1 0 3.696-1.96l-1.804-1.805a6 6 0 1 1-3.337 2.32L5.68 7.094a8 8 0 1 0 3.196-2.461L7.374 3.132A9.96 9.96 0 0 1 12 2c5.523 0 10 4.477 10 10s-4.477 10-10 10S2 17.523 2 12a9.98 9.98 0 0 1 3.671-7.743"/></symbol><symbol id="ri-share-forward-line" viewBox="0 0 24 24" fill="currentColor"><path d="M13 14h-2a9 9 0 0 0-7.968 4.81A10 10 0 0 1 3 18C3 12.477 7.477 8 13 8V2.5L23.5 11 13 19.5zm-2-2h4v3.308L20.321 11 15 6.692V10h-2a7.98 7.98 0 0 0-6.057 2.774A11 11 0 0 1 11 12"/></symbol><symbol id="ri-shopping-cart-2-line" viewBox="0 0 24 24" fill="currentColor"><path d="M4.004 6.417.762 3.174 2.176 1.76l3.243 3.243H20.66a1 1 0 0 1 .958 1.287l-2.4 8a1 1 0 0 1-.958.713H6.004v2h11v2h-12a1 1 0 0 1-1-1zm2 .586v6h11.512l1.8-6zm-.5 16a1.5 1.5 0 1 1 0-3 1.5 1.5 0 0 1 0 3m12 0a1.5 1.5 0 1 1 0-3 1.5 1.5 0 0 1 0 3"/></symbol><symbol id="ri-star-fill" viewBox="0 0 24 24"><path d="m12 18.26-7.053 3.948 1.575-7.928L.588 8.792l8.027-.952L12 .5l3.385 7.34 8.027.952-5.934 5.488 1.575 7.928z"/></symbol><symbol id="ri-star-line" viewBox="0 0 24 24" fill="currentColor"><path d="m12 18.26-7.053 3.948 1.575-7.928L.588 8.792l8.027-.952L12 .5l3.385 7.34 8.027.952-5.934 5.488 1.575 7.928zm0-2.292 4.247 2.377-.948-4.773 3.573-3.305-4.833-.573-2.038-4.419-2.039 4.42-4.833.572 3.573 3.305-.948 4.773z"/></symbol><symbol id="ri-subtract-line" viewBox="0 0 24 24" fill="currentColor"><path d="M5 11v2h14v-2z"/></symbol><symbol id="ri-sun-line" viewBox="0 0 24 24"><path d="M12 18a6 6 0 1 1 0-12 6 6 0 0 1 0 12M11 1h2v3h-2zm0 19h2v3h-2zM3.515 4.929l1.414-1.414L7.05 5.636 5.636 7.05zM16.95 18.364l1.414-1.414 2.121 2.121-1.414 1.414zm2.121-14.85 1.414 1.415-2.121 2.121-1.414-1.414zM5.636 16.95l1.414 1.414-2.121 2.121-1.414-1.414zM23 11v2h-3v-2zM4 11v2H1v-2z"/></symbol><symbol id="ri-survey-fill" viewBox="0 0 24 24"><path d="M6 4v4h12V4h2.007c.548 0 .993.445.993.993v16.014a.994.994 0 0 1-.993.993H3.993A.993.993 0 0 1 3 21.007V4.993C3 4.445 3.445 4 3.993 4zm3 13H7v2h2zm0-3H7v2h2zm0-3H7v2h2zm7-9v4H8V2z"/></symbol><symbol id="ri-survey-line" viewBox="0 0 24 24"><path d="M17 2v2h3.007c.548 0 .993.445.993.993v16.014a.994.994 0 0 1-.993.993H3.993A.993.993 0 0 1 3 21.007V4.993C3 4.445 3.445 4 3.993 4H7V2zM7 6H5v14h14V6h-2v2H7zm2 10v2H7v-2zm0-3v2H7v-2zm0-3v2H7v-2zm6-6H9v2h6z"/></symbol><symbol id="ri-truck-line" viewBox="0 0 24 24" fill="currentColor"><path d="M8.965 18a3.5 3.5 0 0 1-6.93 0H1V6a1 1 0 0 1 1-1h14a1 1 0 0 1 1 1v2h3l3 4.056V18h-2.035a3.501 3.501 0 0 1-6.93 0zM15 7H3v8.05a3.5 3.5 0 0 1 5.663.95h5.674c.168-.353.393-.674.663-.95zm2 6h4v-.285L18.992 10H17zm.5 6a1.5 1.5 0 1 0 0-3.001 1.5 1.5 0 0 0 0 3.001M7 17.5a1.5 1.5 0 1 0-3 0 1.5 1.5 0 0 0 3 0"/></symbol><symbol id="ri-user-3-line" viewBox="0 0 24 24"><path d="M20 22h-2v-2a3 3 0 0 0-3-3H9a3 3 0 0 0-3 3v2H4v-2a5 5 0 0 1 5-5h6a5 5 0 0 1 5 5zm-8-9a6 6 0 1 1 0-12 6 6 0 0 1 0 12m0-2a4 4 0 1 0 0-8 4 4 0 0 0 0 8"/></symbol><symbol id="ri-user-add-line" viewBox="0 0 24 24"><path d="M14 14.252v2.09A6 6 0 0 0 6 22H4a8 8 0 0 1 10-7.749M12 13c-3.315 0-6-2.685-6-6s2.685-6 6-6 6 2.685 6 6-2.685 6-6 6m0-2c2.21 0 4-1.79 4-4s-1.79-4-4-4-4 1.79-4 4 1.79 4 4 4m6 6v-3h2v3h3v2h-3v3h-2v-3h-3v-2z"/></symbol><symbol id="ri-volume-down-line" viewBox="0 0 24 24"><path d="M13 7.22 9.603 10H6v4h3.603L13 16.78zM8.889 16H5a1 1 0 0 1-1-1V9a1 1 0 0 1 1-1h3.889l5.294-4.332a.5.5 0 0 1 .817.387v15.89a.5.5 0 0 1-.817.387zm9.974.591-1.422-1.422A4 4 0 0 0 19 12c0-1.43-.75-2.685-1.88-3.392l1.439-1.439A5.99 5.99 0 0 1 21 12c0 1.842-.83 3.49-2.137 4.591"/></symbol><symbol id="ri-volume-mute-line" viewBox="0 0 24 24" fill="currentColor"><path d="M10 7.22 6.603 10H3v4h3.603L10 16.78zM5.889 16H2a1 1 0 0 1-1-1V9a1 1 0 0 1 1-1h3.889l5.294-4.332a.5.5 0 0 1 .817.387v15.89a.5.5 0 0 1-.817.387zm14.525-4 3.536 3.536-1.415 1.414L19 13.414l-3.536 3.536-1.414-1.414L17.586 12 14.05 8.465l1.414-1.415L19 10.586l3.535-3.536 1.415 1.415z"/></symbol><symbol id="ri-volume-up-line" viewBox="0 0 24 24" fill="currentColor"><path d="M6.603 10 10 7.22v9.56L6.603 14H3v-4zM2 16h3.889l5.294 4.332a.5.5 0 0 0 .817-.387V4.055a.5.5 0 0 0-.817-.387L5.89 8H2a1 1 0 0 0-1 1v6a1 1 0 0 0 1 1m21-4c0 3.292-1.446 6.246-3.738 8.262l-1.418-1.418A8.98 8.98 0 0 0 21 12a8.98 8.98 0 0 0-3.155-6.844l1.417-1.418A10.97 10.97 0 0 1 23 12m-5 0a5.99 5.99 0 0 0-2.287-4.713l-1.429 1.429A4 4 0 0 1 16 12c0 1.36-.679 2.561-1.716 3.284l1.43 1.43A5.99 5.99 0 0 0 18 12"/></symbol><symbol id="ri-wallet-3-line" viewBox="0 0 24 24" fill="currentColor"><path d="M22.005 7h1v10h-1v3a1 1 0 0 1-1 1h-18a1 1 0 0 1-1-1V4a1 1 0 0 1 1-1h18a1 1 0 0 1 1 1zm-2 10h-6a5 5 0 0 1 0-10h6V5h-16v14h16zm1-2V9h-7a3 3 0 1 0 0 6zm-7-4h3v2h-3z"/></symbol><symbol id="ri-wechat-pay-line" viewBox="0 0 24 24" fill="currentColor"><path d="m19.146 8.993-9.799 5.608-.07.045a.65.65 0 0 1-.3.07.66.66 0 0 1-.58-.345l-.046-.092-1.831-3.95c-.023-.046-.023-.092-.023-.138 0-.184.139-.321.324-.321q.105 0 .209.069l2.155 1.515c.162.092.347.161.556.161a.9.9 0 0 0 .348-.069l8.274-3.649C16.935 6.273 14.635 5.2 12.001 5.2c-4.421 0-7.9 3.022-7.9 6.6 0 1.365.5 2.673 1.431 3.78q.073.088.215.236a4 4 0 0 1 1.1 3.102l-.024.297.715-.436a4 4 0 0 1 2.706-.536q.317.05.52.076.61.081 1.237.081c4.42 0 7.9-3.022 7.9-6.6 0-.996-.27-1.95-.755-2.807M6.193 21.943a1 1 0 0 1-1.527-.932l.189-2.259a2 2 0 0 0-.55-1.551 7 7 0 0 1-.303-.333C2.806 15.447 2.1 13.695 2.1 11.8c0-4.75 4.432-8.6 9.9-8.6 5.467 0 9.9 3.85 9.9 8.6s-4.433 8.6-9.9 8.6q-.765-.001-1.5-.098-.229-.03-.568-.084a2 2 0 0 0-1.353.268z"/></symbol><symbol id="rounded-corner" viewBox="0 0 24 24" fill="currentColor"><path d="M21 19v2h-2v-2zm-4 0v2h-2v-2zm-4 0v2h-2v-2zm-4 0v2H7v-2zm-4 0v2H3v-2zm16-4v2h-2v-2zM5 15v2H3v-2zm0-4v2H3v-2zm11-8a5 5 0 0 1 4.995 4.783L21 8v5h-2V8a3.01 3.01 0 0 0-2.824-2.995L16 5h-5V3zM5 7v2H3V7zm0-4v2H3V3zm4 0v2H7V3z"/></symbol><symbol id="sip-line" viewBox="0 0 24 24" fill="currentColor"><path d="m6.457 18.954 8.564-8.564-1.414-1.414-8.564 8.564zm5.735-11.392-1.414-1.414 1.414-1.415 1.768 1.768 2.829-2.828a1 1 0 0 1 1.414 0l2.121 2.121a1 1 0 0 1 0 1.414l-2.828 2.829 1.768 1.767-1.415 1.415-1.414-1.415-9.192 9.193H3v-4.243z"/></symbol></svg>